<svg xmlns="http://www.w3.org/2000/svg" xmlns:xlink="http://www.w3.org/1999/xlink" version="1.1" style="shape-rendering:geometricPrecision; text-rendering:geometricPrecision; image-rendering:optimizeQuality; fill-rule:evenodd; clip-rule:evenodd" viewBox="-0.5 -0.5 1080 1080">
<g><path style="opacity:1" fill="#fefefe" d="M -0.5,-0.5 C 359.5,-0.5 719.5,-0.5 1079.5,-0.5C 1079.5,359.5 1079.5,719.5 1079.5,1079.5C 719.5,1079.5 359.5,1079.5 -0.5,1079.5C -0.5,719.5 -0.5,359.5 -0.5,-0.5 Z"/></g>
<g><path style="opacity:1" fill="#0454bf" d="M 503.5,234.5 C 549.833,234.5 596.167,234.5 642.5,234.5C 642.5,391.167 642.5,547.833 642.5,704.5C 717.5,704.5 792.5,704.5 867.5,704.5C 867.5,751.167 867.5,797.833 867.5,844.5C 746.167,844.5 624.833,844.5 503.5,844.5C 503.5,641.167 503.5,437.833 503.5,234.5 Z"/></g>
<g><path style="opacity:1" fill="#011140" d="M 211.5,467.5 C 260.167,467.5 308.833,467.5 357.5,467.5C 357.5,515.833 357.5,564.167 357.5,612.5C 308.833,612.5 260.167,612.5 211.5,612.5C 211.5,564.167 211.5,515.833 211.5,467.5 Z"/></g>
</svg>