<?xml version="1.0" encoding="UTF-8"?>
<svg id="b" data-name="34x34 Day" xmlns="http://www.w3.org/2000/svg" viewBox="0 0 34 34">
  <g>
    <circle cx="17" cy="17" r="6.7876" fill="#fdeb1b"/>
    <path d="M17,8.8124c-4.5146,0-8.1876,3.673-8.1876,8.1876s3.673,8.1876,8.1876,8.1876,8.1876-3.6729,8.1876-8.1876-3.673-8.1876-8.1876-8.1876ZM17,23.7876c-3.7427,0-6.7876-3.0449-6.7876-6.7876s3.0449-6.7876,6.7876-6.7876,6.7876,3.0449,6.7876,6.7876-3.0449,6.7876-6.7876,6.7876Z" fill="#8e959c"/>
  </g>
  <g>
    <path d="M17,6.6704c-.3867,0-.7002-.3135-.7002-.7002v-3.394c0-.3867.3135-.7002.7002-.7002s.7002.3135.7002.7002v3.394c0,.3867-.3135.7002-.7002.7002Z" fill="#8e959c"/>
    <path d="M17,32.124c-.3867,0-.7002-.3135-.7002-.7002v-3.394c0-.3867.3135-.7002.7002-.7002s.7002.3135.7002.7002v3.394c0,.3867-.3135.7002-.7002.7002Z" fill="#8e959c"/>
  </g>
  <g>
    <path d="M24.7993,9.9009c-.1792,0-.3584-.0684-.4951-.2051-.2734-.2734-.2734-.7168,0-.9902l2.3999-2.3999c.2734-.2734.7168-.2734.9902,0s.2734.7168,0,.9902l-2.3999,2.3999c-.1367.1367-.3159.2051-.4951.2051Z" fill="#8e959c"/>
    <path d="M6.8008,27.8994c-.1792,0-.3584-.0684-.4951-.2051-.2734-.2734-.2734-.7168,0-.9902l2.3999-2.3999c.2734-.2734.7168-.2734.9902,0s.2734.7168,0,.9902l-2.3999,2.3999c-.1367.1367-.3159.2051-.4951.2051Z" fill="#8e959c"/>
  </g>
  <g>
    <path d="M9.2007,9.9009c-.1792,0-.3584-.0684-.4951-.2051l-2.3999-2.3999c-.2734-.2734-.2734-.7168,0-.9902s.7168-.2734.9902,0l2.3999,2.3999c.2734.2734.2734.7168,0,.9902-.1367.1367-.3159.2051-.4951.2051Z" fill="#8e959c"/>
    <path d="M27.1992,27.8994c-.1792,0-.3584-.0684-.4951-.2051l-2.3999-2.3999c-.2734-.2734-.2734-.7168,0-.9902s.7168-.2734.9902,0l2.3999,2.3999c.2734.2734.2734.7168,0,.9902-.1367.1367-.3159.2051-.4951.2051Z" fill="#8e959c"/>
  </g>
  <g>
    <path d="M5.9702,17.7002h-3.394c-.3867,0-.7002-.3135-.7002-.7002s.3135-.7002.7002-.7002h3.394c.3867,0,.7002.3135.7002.7002s-.3135.7002-.7002.7002Z" fill="#8e959c"/>
    <path d="M31.4238,17.7002h-3.394c-.3867,0-.7002-.3135-.7002-.7002s.3135-.7002.7002-.7002h3.394c.3867,0,.7002.3135.7002.7002s-.3135.7002-.7002.7002Z" fill="#8e959c"/>
  </g>
</svg>