<?xml version="1.0" encoding="UTF-8"?>
<svg id="b" data-name="34x34 Day" xmlns="http://www.w3.org/2000/svg" viewBox="0 0 34 34">
  <g>
    <g>
      <g>
        <circle cx="16.8618" cy="13.8939" r="6.0731" transform="translate(-2.4272 24.1552) rotate(-67.5)" fill="#fdeb1b"/>
        <path d="M16.8618,6.4208c-4.1207,0-7.4731,3.3524-7.4731,7.4731s3.3525,7.4731,7.4731,7.4731,7.4731-3.3524,7.4731-7.4731-3.3524-7.4731-7.4731-7.4731ZM10.7887,13.8939c0-3.3487,2.7244-6.0731,6.0731-6.0731s6.0731,2.7244,6.0731,6.0731-2.7244,6.0731-6.0731,6.0731-6.0731-2.7244-6.0731-6.0731Z" fill="#8e959c"/>
      </g>
      <path d="M16.8621,4.7251c-.3867,0-.7002-.3135-.7002-.7002V.9888c0-.3867.3135-.7002.7002-.7002s.7002.3135.7002.7002v3.0361c0,.3867-.3135.7002-.7002.7002Z" fill="#8e959c"/>
      <path d="M23.8396,7.6158c-.1787,0-.3584-.0684-.4951-.2051-.2734-.2734-.2734-.7168,0-.9902l2.1475-2.147c.2734-.2734.7168-.2734.9902,0s.2734.7168,0,.9902l-2.1475,2.147c-.1367.1367-.3164.2051-.4951.2051Z" fill="#8e959c"/>
      <path d="M9.8835,7.6158c-.1792,0-.3584-.0684-.4951-.2051l-2.147-2.147c-.2734-.2734-.2734-.7168,0-.9902s.7168-.2734.9902,0l2.147,2.147c.2734.2734.2734.7168,0,.9902-.1367.1367-.3159.2051-.4951.2051Z" fill="#8e959c"/>
      <path d="M6.9929,14.5943h-3.0366c-.3867,0-.7002-.3135-.7002-.7002s.3135-.7002.7002-.7002h3.0366c.3867,0,.7002.3135.7002.7002s-.3135.7002-.7002.7002Z" fill="#8e959c"/>
    </g>
    <g>
      <path d="M23.0264,10.6622c-3.1521,0-5.759,2.3143-6.2378,5.3201-.5986-.3724-1.3167-.5852-2.075-.5852-2.2078,0-3.99,1.7823-3.99,3.9901,0,1.7158,1.064,3.1655,2.5803,3.7242h11.2119c2.7666-.665,4.8281-3.1523,4.8281-6.1315,0-3.4847-2.833-6.3177-6.3176-6.3177Z" fill="#a6b1ba"/>
      <path d="M23.0264,9.2622c-3.2341,0-6.0295,1.9639-7.1716,4.856-.3718-.0801-.7542-.1211-1.1411-.1211-2.9722,0-5.3901,2.418-5.3901,5.3901,0,2.2427,1.4053,4.2673,3.4963,5.0378l.2344.0864h11.6277l.1614-.0388c3.4744-.8351,5.9006-3.9163,5.9006-7.4927,0-4.2556-3.4619-7.7177-7.7175-7.7177ZM13.304,23.1114c-1.5164-.5587-2.5803-2.0084-2.5803-3.7242,0-2.2078,1.7822-3.9901,3.99-3.9901.7583,0,1.4763.2128,2.075.5852.4788-3.0059,3.0857-5.3201,6.2378-5.3201,3.4846,0,6.3176,2.833,6.3176,6.3177,0,2.9792-2.0615,5.4664-4.8281,6.1315h-11.2119Z" fill="#8e959c"/>
    </g>
  </g>
  <g>
    <g>
      <path d="M22.102,30.8051l-1.7104-.9937,1.7104-.9937c.3324-.1934.4464-.6221.2548-.9561-.1926-.335-.6182-.4493-.9506-.2569l-1.7105.9938v-1.9869c0-.3867-.3115-.7002-.6959-.7002s-.6959.3135-.6959.7002v1.9869l-1.7105-.9938c-.3309-.1924-.7579-.0781-.9506.2569-.1917.334-.0777.7627.2547.9561l1.7104.9937-1.7104.9937c-.3324.1934-.4464.6221-.2547.9561.129.2246.3629.3506.6031.3506.1184,0,.2378-.0303.3474-.0938l1.7105-.9937v1.9869c0,.3867.3116.7002.6959.7002s.6959-.3135.6959-.7002v-1.9869l1.7105.9937c.1097.0635.2291.0938.3475.0938.2402,0,.4741-.126.6031-.3506.1917-.334.0776-.7627-.2548-.9561Z" fill="#8e959c"/>
      <path d="M13.802,30.8051l-1.7104-.9937,1.7104-.9937c.3324-.1934.4464-.6221.2548-.9561-.1926-.335-.6182-.4493-.9506-.2569l-1.7105.9938v-1.9869c0-.3867-.3115-.7002-.6959-.7002s-.6959.3135-.6959.7002v1.9869l-1.7105-.9938c-.3309-.1924-.7579-.0781-.9506.2569-.1917.334-.0777.7627.2547.9561l1.7104.9937-1.7104.9937c-.3324.1934-.4464.6221-.2547.9561.129.2246.3629.3506.6031.3506.1184,0,.2378-.0303.3474-.0938l1.7105-.9937v1.9869c0,.3867.3116.7002.6959.7002s.6959-.3135.6959-.7002v-1.9869l1.7105.9937c.1097.0635.2291.0938.3475.0938.2402,0,.4741-.126.6031-.3506.1917-.334.0776-.7627-.2548-.9561Z" fill="#8e959c"/>
    </g>
    <path d="M24.549,33.7114c-.1191,0-.2412-.0312-.3516-.0957-.334-.1943-.4473-.623-.252-.957l3.5-6c.1943-.334.625-.4453.957-.252.334.1943.4473.623.252.957l-3.5,6c-.1299.2236-.3643.3477-.6055.3477Z" fill="#8e959c"/>
  </g>
</svg>