<?xml version="1.0" encoding="UTF-8"?>
<svg id="b" data-name="34x34 Day" xmlns="http://www.w3.org/2000/svg" viewBox="0 0 34 34">
  <g>
    <g>
      <circle cx="17" cy="18.562" r="6.7876" fill="#fdeb1b"/>
      <path d="M17,10.3744c-4.5146,0-8.1876,3.673-8.1876,8.1876s3.673,8.1876,8.1876,8.1876,8.1876-3.6729,8.1876-8.1876-3.673-8.1876-8.1876-8.1876ZM17,25.3496c-3.7427,0-6.7876-3.0449-6.7876-6.7876s3.0449-6.7876,6.7876-6.7876,6.7876,3.0449,6.7876,6.7876-3.0449,6.7876-6.7876,6.7876Z" fill="#8e959c"/>
    </g>
    <path d="M17,8.2324c-.3867,0-.7002-.3135-.7002-.7002v-3.394c0-.3867.3135-.7002.7002-.7002s.7002.3135.7002.7002v3.394c0,.3867-.3135.7002-.7002.7002Z" fill="#8e959c"/>
    <g>
      <path d="M24.7993,11.4629c-.1792,0-.3584-.0684-.4951-.2051-.2734-.2734-.2734-.7168,0-.9902l2.3999-2.3999c.2734-.2734.7168-.2734.9902,0s.2734.7168,0,.9902l-2.3999,2.3999c-.1367.1367-.3159.2051-.4951.2051Z" fill="#8e959c"/>
      <path d="M6.8008,29.4614c-.1792,0-.3584-.0684-.4951-.2051-.2734-.2734-.2734-.7168,0-.9902l2.3999-2.3999c.2734-.2734.7168-.2734.9902,0s.2734.7168,0,.9902l-2.3999,2.3999c-.1367.1367-.3159.2051-.4951.2051Z" fill="#8e959c"/>
    </g>
    <path d="M9.2007,11.4629c-.1792,0-.3584-.0684-.4951-.2051l-2.3999-2.3999c-.2734-.2734-.2734-.7168,0-.9902s.7168-.2734.9902,0l2.3999,2.3999c.2734.2734.2734.7168,0,.9902-.1367.1367-.3159.2051-.4951.2051Z" fill="#8e959c"/>
    <g>
      <path d="M5.9702,19.2622h-3.394c-.3867,0-.7002-.3135-.7002-.7002s.3135-.7002.7002-.7002h3.394c.3867,0,.7002.3135.7002.7002s-.3135.7002-.7002.7002Z" fill="#8e959c"/>
      <path d="M31.4238,19.2622h-3.394c-.3867,0-.7002-.3135-.7002-.7002s.3135-.7002.7002-.7002h3.394c.3867,0,.7002.3135.7002.7002s-.3135.7002-.7002.7002Z" fill="#8e959c"/>
    </g>
  </g>
  <g>
    <path d="M23.2756,21.501c-1.9399,0-3.5442,1.4242-3.8387,3.2739-.3683-.2291-.8103-.3601-1.2767-.3601-1.3586,0-2.4556,1.0967-2.4556,2.4554,0,1.0558.6548,1.9479,1.5879,2.2917h6.8998c1.7025-.4092,2.9711-1.9398,2.9711-3.7732,0-2.1444-1.7434-3.8878-3.8877-3.8878Z" fill="#d0d6db"/>
    <path d="M23.2756,20.101c-2.0654,0-3.8694,1.1688-4.7388,2.9321-.1246-.0121-.2504-.0182-.3767-.0182-2.126,0-3.8555,1.7296-3.8555,3.8555,0,1.6047,1.0061,3.0535,2.5037,3.6054l.2344.0864h7.3154l.1614-.0388c2.3809-.5723,4.0438-2.6837,4.0438-5.1344,0-2.9157-2.3722-5.2878-5.2877-5.2878ZM17.2925,29.162c-.9331-.3438-1.5879-1.2359-1.5879-2.2917,0-1.3587,1.0969-2.4554,2.4556-2.4554.4664,0,.9084.131,1.2767.3601.2946-1.8497,1.8988-3.2739,3.8387-3.2739,2.1443,0,3.8877,1.7434,3.8877,3.8878,0,1.8334-1.2686,3.364-2.9711,3.7732h-6.8998Z" fill="#8e959c"/>
  </g>
</svg>