<?xml version="1.0" encoding="UTF-8"?>
<svg id="b" data-name="34x34 Day" xmlns="http://www.w3.org/2000/svg" viewBox="0 0 34 34">
  <g>
    <path d="M19.9927,5.8868c-3.1521,0-5.759,2.3143-6.2378,5.3201-.5986-.3724-1.3167-.5852-2.075-.5852-2.2078,0-3.99,1.7823-3.99,3.9901,0,1.7158,1.064,3.1655,2.5803,3.7242h11.2119c2.7666-.665,4.8281-3.1523,4.8281-6.1315,0-3.4847-2.833-6.3177-6.3176-6.3177Z" fill="#a6b1ba"/>
    <path d="M19.9927,4.4868c-3.2341,0-6.0295,1.9639-7.1716,4.856-.3718-.0801-.7542-.1211-1.1411-.1211-2.9722,0-5.3901,2.418-5.3901,5.3901,0,2.2427,1.4053,4.2673,3.4963,5.0378l.2344.0864h11.6277l.1614-.0388c3.4744-.8351,5.9006-3.9163,5.9006-7.4927,0-4.2556-3.4619-7.7177-7.7175-7.7177ZM10.2703,18.3359c-1.5164-.5587-2.5803-2.0084-2.5803-3.7242,0-2.2078,1.7822-3.9901,3.99-3.9901.7583,0,1.4763.2128,2.075.5852.4788-3.0059,3.0857-5.3201,6.2378-5.3201,3.4846,0,6.3176,2.833,6.3176,6.3177,0,2.9792-2.0615,5.4664-4.8281,6.1315h-11.2119Z" fill="#8e959c"/>
  </g>
  <g>
    <path d="M13.8995,28.5355c-.1191,0-.2412-.0312-.3516-.0957-.334-.1943-.4473-.623-.252-.957l3.5-6c.1943-.334.625-.4453.957-.252.334.1943.4473.623.252.957l-3.5,6c-.1299.2236-.3643.3477-.6055.3477Z" fill="#8e959c"/>
    <path d="M18.7999,28.5355c-.1191,0-.2412-.0312-.3516-.0957-.334-.1943-.4473-.623-.252-.957l3.5-6c.1943-.334.625-.4453.957-.252.334.1943.4473.623.252.957l-3.5,6c-.1299.2236-.3643.3477-.6055.3477Z" fill="#8e959c"/>
  </g>
  <path d="M7.9995,29.5132c-.1182,0-.2373-.0303-.3467-.0928-.3359-.1914-.4526-.6191-.2607-.9551l3.2373-5.6641-3.4922.6982c-.2783.0547-.5586-.0596-.7163-.293-.1582-.2324-.1616-.5371-.0088-.7734l5.5-8.5005c.2109-.3247.644-.4165.9683-.2075.3247.2104.4175.6436.2075.9683l-4.5996,7.1079,3.3745-.6748c.2705-.0518.5444.0547.7051.2773s.1763.5186.04.7568l-4,7c-.1294.2256-.3657.3525-.6084.3525Z" fill="#8e959c"/>
</svg>