<?xml version="1.0" encoding="UTF-8"?>
<svg id="b" data-name="34x34 Day" xmlns="http://www.w3.org/2000/svg" viewBox="0 0 34 34">
  <g>
    <g>
      <circle cx="16.8618" cy="18.4914" r="6.0731" transform="translate(-6.6748 26.9933) rotate(-67.5)" fill="#fdeb1b"/>
      <path d="M16.8618,11.0183c-4.1207,0-7.4731,3.3524-7.4731,7.4731s3.3525,7.4731,7.4731,7.4731,7.4731-3.3524,7.4731-7.4731-3.3524-7.4731-7.4731-7.4731ZM10.7887,18.4914c0-3.3487,2.7244-6.0731,6.0731-6.0731s6.0731,2.7244,6.0731,6.0731-2.7244,6.0731-6.0731,6.0731-6.0731-2.7244-6.0731-6.0731Z" fill="#8e959c"/>
    </g>
    <path d="M16.8621,9.3227c-.3867,0-.7002-.3135-.7002-.7002v-3.0361c0-.3867.3135-.7002.7002-.7002s.7002.3135.7002.7002v3.0361c0,.3867-.3135.7002-.7002.7002Z" fill="#8e959c"/>
    <path d="M23.8396,12.2133c-.1787,0-.3584-.0684-.4951-.2051-.2734-.2734-.2734-.7168,0-.9902l2.1475-2.147c.2734-.2734.7168-.2734.9902,0s.2734.7168,0,.9902l-2.1475,2.147c-.1367.1367-.3164.2051-.4951.2051Z" fill="#8e959c"/>
    <path d="M9.8835,12.2133c-.1792,0-.3584-.0684-.4951-.2051l-2.147-2.147c-.2734-.2734-.2734-.7168,0-.9902s.7168-.2734.9902,0l2.147,2.147c.2734.2734.2734.7168,0,.9902-.1367.1367-.3159.2051-.4951.2051Z" fill="#8e959c"/>
    <path d="M6.9929,19.1918h-3.0366c-.3867,0-.7002-.3135-.7002-.7002s.3135-.7002.7002-.7002h3.0366c.3867,0,.7002.3135.7002.7002s-.3135.7002-.7002.7002Z" fill="#8e959c"/>
  </g>
  <g>
    <path d="M23.0264,15.2647c-3.1521,0-5.759,2.3143-6.2378,5.3201-.5986-.3724-1.3167-.5852-2.075-.5852-2.2078,0-3.99,1.7823-3.99,3.9901,0,1.7158,1.064,3.1655,2.5803,3.7242h11.2119c2.7666-.665,4.8281-3.1523,4.8281-6.1315,0-3.4847-2.833-6.3177-6.3176-6.3177Z" fill="#d0d6db"/>
    <path d="M23.0264,13.8647c-3.2341,0-6.0295,1.9639-7.1716,4.856-.3718-.0801-.7542-.1211-1.1411-.1211-2.9722,0-5.3901,2.418-5.3901,5.3901,0,2.2427,1.4053,4.2673,3.4963,5.0378l.2344.0864h11.6277l.1614-.0388c3.4744-.8351,5.9006-3.9163,5.9006-7.4927,0-4.2556-3.4619-7.7177-7.7175-7.7177ZM13.304,27.7138c-1.5164-.5587-2.5803-2.0084-2.5803-3.7242,0-2.2078,1.7822-3.9901,3.99-3.9901.7583,0,1.4763.2128,2.075.5852.4788-3.0059,3.0857-5.3201,6.2378-5.3201,3.4846,0,6.3176,2.833,6.3176,6.3177,0,2.9792-2.0615,5.4664-4.8281,6.1315h-11.2119Z" fill="#8e959c"/>
  </g>
</svg>