<?xml version="1.0" encoding="UTF-8"?>
<svg id="b" data-name="34x34 Day" xmlns="http://www.w3.org/2000/svg" viewBox="0 0 34 34">
  <g>
    <g>
      <circle cx="15.891" cy="17.0433" r="6.0731" transform="translate(-5.9361 25.2025) rotate(-67.5)" fill="#fdeb1b"/>
      <path d="M15.8911,9.5702c-4.1207,0-7.4731,3.3524-7.4731,7.4731s3.3525,7.4731,7.4731,7.4731,7.4731-3.3524,7.4731-7.4731-3.3524-7.4731-7.4731-7.4731ZM9.8179,17.0433c0-3.3487,2.7244-6.0731,6.0731-6.0731s6.0731,2.7244,6.0731,6.0731-2.7244,6.0731-6.0731,6.0731-6.0731-2.7244-6.0731-6.0731Z" fill="#8e959c"/>
    </g>
    <path d="M15.8913,7.8745c-.3867,0-.7002-.3135-.7002-.7002v-3.0361c0-.3867.3135-.7002.7002-.7002s.7002.3135.7002.7002v3.0361c0,.3867-.3135.7002-.7002.7002Z" fill="#8e959c"/>
    <path d="M22.8688,10.7651c-.1787,0-.3584-.0684-.4951-.2051-.2734-.2734-.2734-.7168,0-.9902l2.1475-2.147c.2734-.2734.7168-.2734.9902,0s.2734.7168,0,.9902l-2.1475,2.147c-.1367.1367-.3164.2051-.4951.2051Z" fill="#8e959c"/>
    <path d="M8.9128,10.7651c-.1792,0-.3584-.0684-.4951-.2051l-2.147-2.147c-.2734-.2734-.2734-.7168,0-.9902s.7168-.2734.9902,0l2.147,2.147c.2734.2734.2734.7168,0,.9902-.1367.1367-.3159.2051-.4951.2051Z" fill="#8e959c"/>
    <path d="M6.0222,17.7437h-3.0366c-.3867,0-.7002-.3135-.7002-.7002s.3135-.7002.7002-.7002h3.0366c.3867,0,.7002.3135.7002.7002s-.3135.7002-.7002.7002Z" fill="#8e959c"/>
  </g>
  <g>
    <path d="M21.3532,13.8166c-3.1521,0-5.759,2.3142-6.2378,5.3201-.5986-.3724-1.3167-.5853-2.0748-.5853-2.2079,0-3.9901,1.7823-3.9901,3.9901,0,1.7158,1.064,3.1655,2.5803,3.7241h11.212c2.7665-.665,4.828-3.1522,4.828-6.1315,0-3.4847-2.833-6.3176-6.3176-6.3176Z" fill="#d0d6db"/>
    <path d="M21.3532,12.4166c-3.2341,0-6.0295,1.9639-7.1716,4.856-.3718-.0801-.7542-.1211-1.141-.1211-2.972,0-5.3901,2.418-5.3901,5.3901,0,2.2427,1.405,4.2673,3.4962,5.0378l.2344.0864h11.6277l.1614-.0388c3.4742-.8351,5.9008-3.9163,5.9008-7.4927,0-4.2555-3.4622-7.7177-7.7177-7.7177ZM11.6307,26.2657c-1.5164-.5587-2.5803-2.0084-2.5803-3.7241,0-2.2078,1.7822-3.9901,3.9901-3.9901.7582,0,1.4762.2129,2.0748.5853.4788-3.0059,3.0857-5.3201,6.2378-5.3201,3.4846,0,6.3176,2.8329,6.3176,6.3176,0,2.9792-2.0615,5.4664-4.828,6.1315h-11.212Z" fill="#8e959c"/>
  </g>
  <g>
    <path d="M26.4269,21.501c-1.9399,0-3.5442,1.4242-3.8387,3.2739-.3683-.2291-.8103-.3601-1.2767-.3601-1.3586,0-2.4556,1.0967-2.4556,2.4554,0,1.0558.6548,1.9479,1.5879,2.2917h6.8998c1.7025-.4092,2.9711-1.9398,2.9711-3.7732,0-2.1444-1.7434-3.8878-3.8877-3.8878Z" fill="#d0d6db"/>
    <path d="M26.4269,20.101c-2.0654,0-3.8694,1.1688-4.7388,2.9321-.1246-.0121-.2504-.0182-.3767-.0182-2.126,0-3.8555,1.7296-3.8555,3.8555,0,1.6047,1.0061,3.0535,2.5037,3.6054l.2344.0864h7.3154l.1614-.0388c2.3809-.5723,4.0438-2.6837,4.0438-5.1344,0-2.9157-2.3722-5.2878-5.2877-5.2878ZM20.4438,29.162c-.9331-.3438-1.5879-1.2359-1.5879-2.2917,0-1.3587,1.0969-2.4554,2.4556-2.4554.4664,0,.9084.131,1.2767.3601.2946-1.8497,1.8988-3.2739,3.8387-3.2739,2.1443,0,3.8877,1.7434,3.8877,3.8878,0,1.8334-1.2686,3.364-2.9711,3.7732h-6.8998Z" fill="#8e959c"/>
  </g>
</svg>