<?xml version="1.0" encoding="UTF-8"?>
<svg id="b" data-name="34x34 Day" xmlns="http://www.w3.org/2000/svg" viewBox="0 0 34 34">
  <path d="M20.6831,9.339c-3.8795,0-7.088,2.8483-7.6772,6.5479-.7367-.4583-1.6206-.7203-2.5537-.7203-2.7173,0-4.9109,2.1935-4.9109,4.9109,0,2.1117,1.3096,3.8959,3.1758,4.5836h13.7996c3.4048-.8185,5.9421-3.8797,5.9421-7.5464,0-4.2888-3.4868-7.7756-7.7756-7.7756Z" fill="#d0d6db"/>
  <path d="M20.6831,7.939c-3.9414,0-7.3347,2.4535-8.6248,6.0338-.5193-.1363-1.0588-.2062-1.6062-.2062-3.4797,0-6.3108,2.8311-6.3108,6.3109,0,2.6255,1.6443,4.9954,4.0916,5.8972l.2344.0864h14.2151l.1614-.0388c4.1304-.9928,7.0149-4.6558,7.0149-8.9077,0-5.0594-4.1161-9.1756-9.1755-9.1756ZM8.717,24.661c-1.8662-.6876-3.1758-2.4719-3.1758-4.5836,0-2.7173,2.1936-4.9109,4.9109-4.9109.9331,0,1.817.262,2.5537.7203.5892-3.6995,3.7977-6.5479,7.6772-6.5479,4.2888,0,7.7756,3.4868,7.7756,7.7756,0,3.6667-2.5374,6.728-5.9421,7.5464h-13.7996Z" fill="#8e959c"/>
</svg>