<?xml version="1.0" encoding="UTF-8"?>
<svg id="b" data-name="34x34 Day" xmlns="http://www.w3.org/2000/svg" viewBox="0 0 34 34">
  <g>
    <path d="M18.6707,9.3273c-3.1521,0-5.759,2.3142-6.2378,5.3201-.5986-.3724-1.3167-.5853-2.0748-.5853-2.2079,0-3.9901,1.7823-3.9901,3.9901,0,1.7158,1.064,3.1655,2.5803,3.7241h11.212c2.7665-.665,4.828-3.1522,4.828-6.1315,0-3.4847-2.833-6.3176-6.3176-6.3176Z" fill="#d0d6db"/>
    <path d="M18.6707,7.9273c-3.2341,0-6.0295,1.9639-7.1716,4.856-.3718-.0801-.7542-.1211-1.141-.1211-2.972,0-5.3901,2.418-5.3901,5.3901,0,2.2427,1.405,4.2673,3.4962,5.0378l.2344.0864h11.6277l.1614-.0388c3.4742-.8351,5.9008-3.9163,5.9008-7.4927,0-4.2555-3.4622-7.7177-7.7177-7.7177ZM8.9482,21.7764c-1.5164-.5587-2.5803-2.0084-2.5803-3.7241,0-2.2078,1.7822-3.9901,3.9901-3.9901.7582,0,1.4762.2129,2.0748.5853.4788-3.0059,3.0857-5.3201,6.2378-5.3201,3.4846,0,6.3176,2.8329,6.3176,6.3176,0,2.9792-2.0615,5.4664-4.828,6.1315h-11.212Z" fill="#8e959c"/>
  </g>
  <g>
    <path d="M23.7444,17.0117c-1.9399,0-3.5442,1.4242-3.8387,3.2739-.3683-.2291-.8103-.3601-1.2767-.3601-1.3586,0-2.4556,1.0967-2.4556,2.4554,0,1.0558.6548,1.9479,1.5879,2.2917h6.8998c1.7025-.4092,2.9711-1.9398,2.9711-3.7732,0-2.1444-1.7434-3.8878-3.8877-3.8878Z" fill="#d0d6db"/>
    <path d="M23.7444,15.6117c-2.0654,0-3.8694,1.1688-4.7388,2.9321-.1246-.0121-.2504-.0182-.3767-.0182-2.126,0-3.8555,1.7296-3.8555,3.8555,0,1.6047,1.0061,3.0535,2.5037,3.6054l.2344.0864h7.3154l.1614-.0388c2.3809-.5723,4.0438-2.6837,4.0438-5.1344,0-2.9157-2.3722-5.2878-5.2877-5.2878ZM17.7612,24.6727c-.9331-.3438-1.5879-1.2359-1.5879-2.2917,0-1.3587,1.0969-2.4554,2.4556-2.4554.4664,0,.9084.131,1.2767.3601.2946-1.8497,1.8988-3.2739,3.8387-3.2739,2.1443,0,3.8877,1.7434,3.8877,3.8878,0,1.8334-1.2686,3.364-2.9711,3.7732h-6.8998Z" fill="#8e959c"/>
  </g>
</svg>