<?xml version="1.0" encoding="UTF-8"?>
<svg id="b" data-name="34x34 Day" xmlns="http://www.w3.org/2000/svg" viewBox="0 0 34 34">
  <path d="M5.9015,24.5914h20.2993c-.9262.6832-2.0345,1.1994-3.3402,1.4879l-.167.0304h-13.8619l-.1822-.0456c-1.0932-.2733-2.0193-.7742-2.7481-1.4727Z" fill="#8e959c"/>
  <path d="M4.1554,21.2512h24.8087c-.2582.5315-.5466,1.0476-.911,1.5183H4.5957c-.1822-.3948-.3036-.8046-.3947-1.245l-.0456-.2733Z" fill="#8e959c"/>
  <path d="M25.9123,9.4086h-10.2484c1.4575-.9717,3.2035-1.5183,5.0558-1.5183h.0304c.1063,0,.1974,0,.2885.0152.6528.0303,1.3057.1215,2.0193.2733,1.0931.2581,2.0496.6832,2.8544,1.2298Z" fill="#8e959c"/>
  <path d="M28.8578,12.7488H12.5666c.2885-.5466.6377-1.0476,1.0325-1.5183h14.3021c.3796.4707.6983.9868.9565,1.5183Z" fill="#8e959c"/>
  <path d="M29.8294,16.0891H5.5067c.3492-.4859.7743-.911,1.2602-1.2754.1214-.0911.2429-.167.3644-.2429h22.4249c.1367.501.2278,1.0172.2733,1.5183Z" fill="#8e959c"/>
  <path d="M29.8598,17.9109c-.0455.5011-.1215,1.0173-.2429,1.5183H4.1402c.0608-.5162.1974-1.0324.3796-1.5183h25.34Z" fill="#8e959c"/>
  <path d="M25.9123,9.4086h-10.2484c1.4575-.9717,3.2035-1.5183,5.0558-1.5183h.0304c.1063,0,.1974,0,.2885.0152.6528.0303,1.3057.1215,2.0193.2733,1.0931.2581,2.0496.6832,2.8544,1.2298Z" fill="#8e959c"/>
  <path d="M28.8578,12.7488H12.5666c.2885-.5466.6377-1.0476,1.0325-1.5183h14.3021c.3796.4707.6983.9868.9565,1.5183Z" fill="#8e959c"/>
  <path d="M29.8294,16.0891H5.5067c.3492-.4859.7743-.911,1.2602-1.2754.1214-.0911.2429-.167.3644-.2429h22.4249c.1367.501.2278,1.0172.2733,1.5183Z" fill="#8e959c"/>
  <path d="M29.8598,17.9109c-.0455.5011-.1215,1.0173-.2429,1.5183H4.1402c.0608-.5162.1974-1.0324.3796-1.5183h25.34Z" fill="#8e959c"/>
  <path d="M28.9641,21.2512c-.2582.5315-.5466,1.0476-.911,1.5183H4.5957c-.1822-.3948-.3036-.8046-.3947-1.245l-.0456-.2733h24.8087Z" fill="#8e959c"/>
  <path d="M26.2008,24.5914c-.9262.6832-2.0345,1.1994-3.3402,1.4879l-.167.0304h-13.8619l-.1822-.0456c-1.0932-.2733-2.0193-.7742-2.7481-1.4727h20.2993Z" fill="#8e959c"/>
</svg>